<?xml version="1.0" encoding="UTF-8" standalone="no"?> <!-- Created with Vectornator for iOS (http://vectornator.io/) --><!DOCTYPE svg PUBLIC "-//W3C//DTD SVG 1.1//EN" "http://www.w3.org/Graphics/SVG/1.1/DTD/svg11.dtd">
<svg height="100%" style="fill-rule:evenodd;clip-rule:evenodd;stroke-linecap:round;stroke-linejoin:round;" xmlns:xlink="http://www.w3.org/1999/xlink" xmlns="http://www.w3.org/2000/svg" xml:space="preserve" width="100%" xmlns:vectornator="http://vectornator.io" version="1.1" viewBox="0 0 1024 1024">
<metadata>
<vectornator:setting key="DynamicGuides" value="1"/>
<vectornator:setting key="Units" value="Points"/>
<vectornator:setting key="GuidesVisible" value="1"/>
<vectornator:setting key="RulersVisible" value="1"/>
<vectornator:setting key="SnapToGuides" value="1"/>
<vectornator:setting key="GridSpacing" value="36"/>
</metadata>
<defs/>
<g id="Layer 1" vectornator:layerName="Layer 1">
<path d="M1025.99+1024L-13.6352+1024L-13.6352+0.132552L1025.99+0.132552" fill-rule="evenodd" fill="#ffdd00" opacity="1"/>
<path d="M515.894+34.2508L515.894+34.3475C364.632+34.131+242.681+87.468+160.01+174.947C77.3397+262.426+34.5052+382.126+34.5363+512C34.5675+641.874+77.3397+761.759+160.01+849.053C242.681+936.346+364.195+989.749+515.115+989.749L515.894+989.749C778.667+985.551+989.464+772.89+989.464+512C989.464+251.11+778.667+38.4494+515.894+34.2508ZM695.181+886.535C639.694+912.718+578.514+926.636+515.894+926.552C379.334+926.335+276.685+879.828+206.443+805.955C169.731+766.692+141.751+720.197+124.286+669.51L281.883+669.51C281.358+649.125+274.464+629.379+262.122+613.077C249.227+595.297+229.571+578.804+205.275+564.858L173.346+546.788C158.574+537.638+153.701+518.556+162.249+503.496C170.797+488.437+189.738+482.743+205.275+490.548L237.69+508.908C267.873+526.317+294.721+547.955+314.687+575.197C335.088+602.56+346.417+635.57+347.005+669.607L681.862+669.607L681.862+507.845L399.57+507.845C334.467+507.572+281.819+454.968+282.078+390.34L282.078+354.973L124.286+354.973C141.777+304.326+169.754+257.966+206.443+218.722C276.685+144.725+379.334+98.1247+515.894+98.1247C685.217+98.1811+837.761+199.608+902.148+355.069L746.984+355.069L746.984+448.319C776.296+452.463+800.157+464.38+817.071+480.305C838.501+500.25+849.466+523.619+858.344+541.183C866.164+556.817+859.683+575.739+843.937+583.508C828.191+591.276+809.132+584.931+801.301+569.303C792.61+551.492+784.344+536.37+773.753+526.785C766.228+519.864+756.988+515.029+746.984+512.773L746.984+669.607L902.148+669.607C881.118+720.306+850.188+766.412+811.133+805.182C777.136+839.023+737.841+866.404+695.181+886.535M282.078+354.973L344.279+354.973L344.279+392.08C344.21+421.837+368.425+446.04+398.402+446.194L681.862+446.194L681.862+354.973L344.377+354.973L344.377+300.376C344.307+270.654+368.462+246.466+398.402+246.262L627.643+246.262C642.091+246.287+655.974+251.871+666.287+261.916C675.962+270.884+681.578+283.373+681.862+296.51L681.862+354.876L746.984+354.876L746.984+297.96C746.392+235.59+694.053+184.885+629.2+184.514L399.959+184.514C334.827+184.548+282.043+236.975+282.078+301.632L282.078+354.973ZM282.078+673.472L281.98+702.752L282.078+702.752L282.078+673.472ZM282.078+702.752L282.078+725.847C282.043+790.492+334.839+842.914+399.959+842.965L629.297+842.965C660.783+842.992+690.936+830.362+712.817+807.888C708.984+790.572+708.983+772.636+712.817+755.32L712.817+702.752L681.862+702.752L681.862+753.774C681.395+788.592+657.464+811.185+627.935+811.463L398.402+811.463C398.402+811.463+344.244+788.194+344.182+758.509L347.102+703.235L347.102+702.752L282.078+702.752Z" fill-rule="evenodd" fill="#231f20" opacity="1"/>
</g>
</svg>
