<svg xmlns="http://www.w3.org/2000/svg" x="0px" y="0px" width="100%" height="100%" viewBox="0 0 990.25 331.11"><defs/><defs><style>.cls-1{fill:#fd0}.cls-2{fill:#231f20}</style></defs><path d="M0 0h901v331.11H0z" class="cls-1"/><path d="M422.68 131h-29.4v87.2h-19.6V131h-28.42v-17.66h77.42zM522.64 113.34V218.2H503v-48h-45v48h-19.6V113.34H458v40.18h45v-40.18zM565.76 131v24.5h51v16.66h-51v28.42h59.78v17.62h-78.4V113.34h74.48V131zm24.91-46.06l15.93 18.62h-18.53L581.64 95l-6.44 8.54h-17.91l15.31-18.62zM708.84 131h-29.4v87.2h-19.6V131h-28.42v-17.66h77.42zM767.91 197.62h-39.66l-6.13 20.58h-20.91l35.47-104.86H759l36 104.86h-20.95zM762.66 181l-14.5-48.41L733.51 181zM173.71 11.22C125.15 11.15 86 28.41 59.46 56.7s-40.27 67-40.26 109 13.72 80.77 40.26 109 65.55 45.49 114 45.49h.27a154.52 154.52 0 000-309zm94.78 249.27a133.6 133.6 0 01-94.78 39.26c-43.84-.07-76.78-15.11-99.33-39A123.7 123.7 0 0148 216.63h50.6a31.71 31.71 0 00-6.35-18.24c-4.14-5.75-10.45-11.09-18.25-15.6l-10.25-5.85A10.45 10.45 0 0174 158.75l10.4 5.94c9.69 5.63 18.33 12.62 24.74 21.43a52.84 52.84 0 0110.36 30.53H227v-52.3h-90.64a37.85 37.85 0 01-37.69-38v-11.43H48a123.87 123.87 0 0126.38-44.09c22.55-23.93 55.49-39 99.33-39a134.12 134.12 0 01124 83.12h-49.8v30.15c9.41 1.34 17.06 5.19 22.49 10.34 6.88 6.45 10.4 14 13.25 19.68a10.22 10.22 0 01-18.31 9.1c-2.79-5.76-5.44-10.66-8.84-13.76a18.75 18.75 0 00-8.59-4.53v50.73h49.8a134.3 134.3 0 01-29.22 43.83zM118.63 126.9A17.46 17.46 0 00136 144.4h91v-29.48H118.63zm.94 90.18v-.46.45zm-20.91.83v16.93a37.86 37.86 0 0037.83 37.88h73.64a37.24 37.24 0 0026.81-11.36 39.6 39.6 0 0011-27.72v-17H227v16.51c-.15 11.26-7.83 18.57-17.31 18.66H136s-17.39-7.52-17.41-17.12l.94-17.88v-.17H98.62v.85zm20-120.67A17.46 17.46 0 01136 79.74h73.6a17.75 17.75 0 0112.4 5.08A15.76 15.76 0 01227 96v18.89h20.92V96.46c-.19-20.17-17-36.56-37.82-36.68h-73.6a37.86 37.86 0 00-37.84 37.88v17.26h20z" class="cls-2"/><path fill="#ffef00" d="M990.25 0L922.3 235.59V0h67.95z"/><path d="M973.17 0L912.5 331.11h-17.75V0h78.42z" class="cls-1"/><path d="M912.5 331.11h-17.75l48.67-168.74-30.92 168.74z" class="cls-2"/></svg>